<!DOCTYPE svg PUBLIC "-//W3C//DTD SVG 20010904//EN" "http://www.w3.org/TR/2001/REC-SVG-20010904/DTD/svg10.dtd">
<svg version="1.0" xmlns="http://www.w3.org/2000/svg" width="61px" height="111px" viewBox="0 0 610 1110" preserveAspectRatio="xMidYMid meet">
<g id="layer1" fill="#58595b" stroke="none">
 <path d="M419 1073 c-39 -42 -297 -344 -372 -436 -31 -38 -47 -67 -47 -86 0 -22 47 -83 220 -287 263 -309 255 -304 338 -202 82 100 82 100 -99 312 -131 155 -149 180 -137 194 7 9 51 62 98 117 182 212 190 223 190 263 0 31 -10 48 -56 100 -66 74 -85 77 -135 25z"/>
 </g>

</svg>