<!DOCTYPE svg PUBLIC "-//W3C//DTD SVG 20010904//EN" "http://www.w3.org/TR/2001/REC-SVG-20010904/DTD/svg10.dtd">
<svg version="1.0" xmlns="http://www.w3.org/2000/svg" width="211px" height="151px" viewBox="0 0 2110 1510" preserveAspectRatio="xMidYMid meet">
<g id="layer1" fill="#f37021" stroke="none">
 <path d="M800 1455 l0 -55 100 0 100 0 0 -595 0 -595 -220 0 c-121 0 -220 3 -220 6 0 3 50 114 111 247 159 347 145 305 107 322 l-33 14 34 1 34 0 -7 58 c-14 122 -104 250 -214 306 -113 57 -261 57 -375 0 -109 -56 -199 -185 -213 -306 l-7 -58 34 0 34 -1 -33 -14 c-38 -17 -52 25 107 -322 61 -133 111 -244 111 -247 0 -3 -34 -6 -75 -6 l-75 0 0 -55 0 -55 450 0 450 0 0 -50 0 -50 55 0 55 0 0 50 0 50 450 0 450 0 0 55 0 55 -75 0 c-41 0 -75 3 -75 6 0 3 50 114 111 247 159 347 145 305 107 322 l-33 14 34 1 34 0 -7 58 c-14 122 -104 250 -214 306 -113 57 -261 57 -375 0 -109 -56 -199 -185 -213 -306 l-7 -58 34 0 34 -1 -33 -14 c-38 -17 -52 25 107 -322 61 -133 111 -244 111 -247 0 -3 -99 -6 -220 -6 l-220 0 0 595 0 595 100 0 100 0 0 55 0 55 -255 0 -255 0 0 -55z m-106 -670 c-3 -8 -63 -139 -133 -292 -169 -368 -143 -368 -312 0 -70 153 -130 284 -133 292 -5 13 34 15 289 15 255 0 294 -2 289 -15z m1300 0 c-3 -8 -63 -139 -133 -292 -169 -368 -143 -368 -312 0 -70 153 -130 284 -133 292 -5 13 34 15 289 15 255 0 294 -2 289 -15z"/>
 </g>

</svg>