<!DOCTYPE svg PUBLIC "-//W3C//DTD SVG 20010904//EN" "http://www.w3.org/TR/2001/REC-SVG-20010904/DTD/svg10.dtd">
<svg version="1.0" xmlns="http://www.w3.org/2000/svg" width="75px" height="70px" viewBox="0 0 750 700" preserveAspectRatio="xMidYMid meet">
<g id="layer1" fill="#ea3b3b" stroke="none">
 <path d="M217 577 c-142 -126 -178 -168 -203 -239 -17 -50 -18 -136 -2 -192 17 -56 94 -132 142 -142 66 -12 134 1 181 34 38 27 45 29 56 16 51 -62 195 -73 263 -20 66 50 91 99 95 187 3 67 -1 86 -23 134 -14 31 -35 68 -46 83 -39 51 -285 261 -305 262 -12 0 -77 -51 -158 -123z m427 -221 c40 -64 46 -138 16 -200 -52 -109 -179 -113 -245 -9 -27 44 -57 43 -84 -2 -29 -51 -77 -77 -127 -72 -114 12 -168 145 -108 265 20 40 57 81 152 166 l127 113 120 -107 c66 -59 133 -128 149 -154z"/>
 </g>

</svg>