<!DOCTYPE svg PUBLIC "-//W3C//DTD SVG 20010904//EN" "http://www.w3.org/TR/2001/REC-SVG-20010904/DTD/svg10.dtd">
<svg version="1.0" xmlns="http://www.w3.org/2000/svg" width="56px" height="55px" viewBox="0 0 560 550" preserveAspectRatio="xMidYMid meet">
<g id="layer1" fill="#bababa" stroke="none">
 <path d="M104 537 c-3 -8 7 -49 20 -93 14 -43 26 -84 26 -90 0 -6 -28 -33 -62 -59 -117 -90 -115 -103 20 -107 l96 -3 29 -92 c26 -81 32 -93 52 -93 19 0 26 12 51 95 l28 95 98 0 c96 0 98 1 98 23 0 17 -19 37 -73 77 l-74 54 29 91 c15 49 26 96 23 103 -9 24 -44 11 -112 -41 l-69 -53 -69 53 c-70 53 -101 64 -111 40z"/>
 </g>

</svg>